<?xml version="1.0" encoding="UTF-8"?>
<svg width="12px" height="12px" viewBox="0 0 12 12" version="1.1" xmlns="http://www.w3.org/2000/svg" xmlns:xlink="http://www.w3.org/1999/xlink">
    <title>Icon</title>
    <g id="电脑端备份" stroke="none" stroke-width="1" fill="none" fill-rule="evenodd">
        <g id="总览-点位展开" transform="translate(-1175.000000, -180.000000)" fill="#000000">
            <g id="Map" transform="translate(206.000000, 150.000000)">
                <g id="List" transform="translate(744.000000, 16.000000)">
                    <g id="Filter" transform="translate(225.000000, 12.000000)">
                        <path d="M4.61538462,2 L4.61538462,3.84615385 L4.61538462,5.69230769 L4.61538462,7.53846154 L2.76923077,7.53846154 L2.76923077,5.69230769 L0,5.69230769 L0,3.84615385 L2.76923077,3.84615385 L2.76923077,2 L4.61538462,2 Z M12,3.84615385 L5.53846154,3.84615385 L5.53846154,5.69230769 L12,5.69230769 L12,3.84615385 Z M9.23076923,12.1538462 L12,12.1538462 L12,10.3076923 L9.23076923,10.3076923 L9.23076923,8.46153846 L7.38461538,8.46153846 L7.38461538,10.3076923 L7.38461538,12.1538462 L7.38461538,14 L9.23076923,14 L9.23076923,12.1538462 Z M6.46153846,12.1538462 L0,12.1538462 L0,10.3076923 L6.46153846,10.3076923 L6.46153846,12.1538462 Z" id="Icon"></path>
                    </g>
                </g>
            </g>
        </g>
    </g>
</svg>