<?xml version="1.0" encoding="UTF-8"?>
<svg width="12px" height="10px" viewBox="0 0 12 10" version="1.1" xmlns="http://www.w3.org/2000/svg" xmlns:xlink="http://www.w3.org/1999/xlink">
    <title>Icon</title>
    <g id="电脑端" stroke="none" stroke-width="1" fill="none" fill-rule="evenodd" fill-opacity="0.3">
        <g id="总览-点位聚合" transform="translate(-962.000000, -181.000000)" fill="#000000" fill-rule="nonzero">
            <g id="Map" transform="translate(206.000000, 150.000000)">
                <g id="Search" transform="translate(744.000000, 16.000000)">
                    <path d="M12,15 L14.0094558,15 L14.0094558,17.0084458 L12,17.0084458 L12,15 Z M16.0179401,15 L24,15 L24,17.0084458 L16.0179401,17.0084458 L16.0179401,15 Z M12,19.0111444 L14.0094558,19.0111444 L14.0094558,21.0196039 L12,21.0196039 L12,19.0111444 L12,19.0111444 Z M16.0179401,19.0111444 L24,19.0111444 L24,21.0196039 L16.0179401,21.0196039 L16.0179401,19.0111444 L16.0179401,19.0111444 Z M12,22.9915542 L14.0094558,22.9915542 L14.0094558,25 L12,25 L12,22.9915542 L12,22.9915542 Z M16.0179401,22.9915542 L24,22.9915542 L24,25 L16.0179401,25 L16.0179401,22.9915542 L16.0179401,22.9915542 Z" id="Icon"></path>
                </g>
            </g>
        </g>
    </g>
</svg>