<?xml version="1.0" encoding="UTF-8"?>
<svg width="13px" height="13px" viewBox="0 0 13 13" version="1.1" xmlns="http://www.w3.org/2000/svg" xmlns:xlink="http://www.w3.org/1999/xlink">
    <title>Icon</title>
    <g id="电脑端" stroke="none" stroke-width="1" fill="none" fill-rule="evenodd">
        <g id="总览-点位聚合" transform="translate(-1026.000000, -27.000000)" fill="#333333" fill-rule="nonzero">
            <g id="Fullscreen" transform="translate(1012.000000, 16.000000)">
                <path d="M18.6241406,22.1678125 L18.6241406,24 L14,24 L14,19.3758594 L15.8321875,19.3758594 L15.8321875,22.1678125 L18.6241406,22.1678125 L18.6241406,22.1678125 Z M25.1678125,19.3758594 L27,19.3758594 L27,24 L22.3758594,24 L22.3758594,22.1678125 L25.1678125,22.1678125 L25.1678125,19.3758594 Z M22.3758594,11 L27,11 L27,15.6241406 L25.1678125,15.6241406 L25.1678125,12.8321875 L22.3758594,12.8321875 L22.3758594,11 Z M14,11 L18.6241406,11 L18.6241406,12.8321875 L15.8321875,12.8321875 L15.8321875,15.6241406 L14,15.6241406 L14,11 Z" id="Icon"></path>
            </g>
        </g>
    </g>
</svg>