<?xml version="1.0" encoding="UTF-8"?>
<svg width="14px" height="14px" viewBox="0 0 14 14" version="1.1" xmlns="http://www.w3.org/2000/svg" xmlns:xlink="http://www.w3.org/1999/xlink">
    <title>Icon</title>
    <g id="电脑端" stroke="none" stroke-width="1" fill="none" fill-rule="evenodd">
        <g id="总览-点位聚合" transform="translate(-1143.000000, -25.000000)" fill="#333333" fill-rule="nonzero">
            <g id="User" transform="translate(1126.000000, 16.000000)">
                <path d="M31,20.9466667 L31,21.6 C31,22.37 30.37,23 29.6,23 L18.4,23 C17.63,23 17,22.37 17,21.6 L17,20.9466667 C17,19.2433333 18.9833333,18.2166667 20.85,17.4 C20.92,17.3766667 20.9666667,17.3533333 21.0366667,17.3066667 C21.1766667,17.2366667 21.34,17.2366667 21.48,17.33 C22.2266667,17.82 23.09,18.1 24,18.1 C24.91,18.1 25.7733333,17.82 26.52,17.3533333 C26.66,17.26 26.8233333,17.26 26.9633333,17.33 C27.0333333,17.3533333 27.08,17.3766667 27.15,17.4233333 C29.0166667,18.2166667 31,19.2433333 31,20.9466667 Z M20.5233333,12.85 C20.5233333,14.9762963 22.07989,16.7 24,16.7 C25.92011,16.7 27.4766667,14.9762963 27.4766667,12.85 C27.4766667,11.4745275 26.8140177,10.2035385 25.7383333,9.5158022 C24.6626489,8.82806593 23.3373511,8.82806593 22.2616667,9.5158022 C21.1859823,10.2035385 20.5233333,11.4745275 20.5233333,12.85 Z" id="Icon"></path>
            </g>
        </g>
    </g>
</svg>