<?xml version="1.0" encoding="UTF-8"?>
<svg width="176px" height="20px" viewBox="0 0 176 20" version="1.1" xmlns="http://www.w3.org/2000/svg" xmlns:xlink="http://www.w3.org/1999/xlink">
    <title>Product logo</title>
    <g id="电脑端" stroke="none" stroke-width="1" fill="none" fill-rule="evenodd">
        <g id="总览-点位聚合" transform="translate(-16.000000, -21.000000)">
            <g id="Product-logo" transform="translate(16.000000, 21.000000)">
                <g id="Logo">
                    <path d="M48.2275836,3.24324324 L47.4471938,4.75463788 L42.4946834,4.75463788 L42.4946834,5.36506931 L48.5278116,5.36506931 L48.5278116,9.60859032 L46.5467804,9.60859032 L46.5467804,6.7311325 L42.4646945,6.7311325 L42.4646945,9.57955026 L40.3636397,9.57955026 L40.3636397,6.6729868 L36.2815538,6.6729868 L36.2815538,9.57955026 L34.2705336,9.57955026 L34.2705336,5.42314944 L40.3936964,5.42314944 L40.3936964,4.75463788 L35.4111294,4.75463788 L34.4806594,3.24324324 L48.2275836,3.24324324 Z M39.8834035,8.62040857 L39.8834035,9.6086231 L36.7017986,9.6086231 L36.7017986,8.62040857 L39.8834035,8.62040857 Z M46.0665442,8.62040857 L46.0665442,9.6086231 L42.8849393,9.6086231 L42.8849393,8.62040857 L46.0665442,8.62040857 Z M39.8834035,7.138054 L39.8834035,8.12626853 L36.7017986,8.12626853 L36.7017986,7.138054 L39.8834035,7.138054 Z M46.0665442,7.138054 L46.0665442,8.12626853 L42.8849393,8.12626853 L42.8849393,7.138054 L46.0665442,7.138054 Z M43.48526,12.3117094 L43.48526,13.6196269 L39.2530938,13.6196269 L39.2530938,12.3117094 L43.48526,12.3117094 Z M45.3462203,10.102691 L49.0980892,13.3871031 L46.2466336,13.3871031 L44.4757282,11.9048141 L37.9624382,11.9048141 L36.4616365,13.3579975 L33.7002831,13.3579975 L37.0619571,10.102691 L45.3462203,10.102691 Z M34.4506231,13.9684093 L34.4506231,15.5379496 L39.3730767,15.5379496 L39.3730767,17.8050416 L41.5042558,17.8050416 L41.5042558,13.9684093 L34.4506231,13.9684093 Z M42.8849257,13.9684093 L42.0444903,15.5089095 L46.4567255,15.5089095 L44.0255215,17.8050416 L46.3966799,17.8050416 L48.2876766,15.8867582 L48.2876766,13.9684093 L42.8849257,13.9684093 Z M52.2796603,3.24324324 L52.2796603,5.48129513 L51.019041,5.48129513 L51.019041,7.3124583 L52.2196147,7.3124583 L52.2196147,10.6549505 L51.019041,11.0327992 L51.019041,13.1836653 L52.2496713,12.7767111 L52.2496713,15.8867516 L51.019041,15.8867516 L51.019041,17.805035 L54.3207371,17.805035 L54.3207371,12.1953853 L55.8514601,11.7449036 L55.8514601,9.60859032 L54.3207371,10.1026648 L54.3207371,7.28335267 L55.8514601,7.28335267 L55.8514601,5.39404382 L54.3207371,5.39404382 L54.3207371,3.24324324 L52.2796603,3.24324324 Z M56.3017277,3.50483985 L56.3017277,6.42595612 L58.4027824,6.42595612 L58.4027824,5.39408315 L63.5354296,5.39408315 L63.5354296,6.42595612 L65.6664733,6.42595612 L65.6664733,3.50483985 L56.3017277,3.50483985 Z M61.9745551,8.91105181 L61.9745551,10.3061551 L65.6665139,10.3061551 L65.6665139,12.1373182 L62.0046118,12.1373182 L62.0046118,17.8050481 L59.9636027,17.8050481 L59.9636027,12.1373182 L56.1816771,12.1373182 L56.1816771,10.3352607 L59.9636027,10.3352607 L59.9636027,8.91105181 L61.9745551,8.91105181 Z M59.423314,12.9656813 L58.4028095,17.8050153 L56.1816635,17.8050153 L57.3823049,12.9656813 L59.423314,12.9656813 Z M64.5559409,12.9656813 L65.66648,17.8050153 L63.6855165,17.8050153 L62.5148641,12.9656813 L64.5559409,12.9656813 Z M63.6254641,6.67298025 L65.2762783,9.60858377 L63.085189,9.60858377 L61.4043182,6.67298025 L63.6254641,6.67298025 Z M60.5938988,6.67298025 L59.0031302,9.46325232 L56.7219386,9.46325232 L58.3427639,6.67298025 L60.5938988,6.67298025 Z M71.1892544,3.24324324 L70.9791286,3.70834322 L75.2413514,3.70834322 L75.2413514,5.30685806 L73.1402967,5.30685806 L73.1402967,6.42591678 L75.2413514,6.42591678 L75.2413514,8.14078856 L73.470446,8.14078856 L75.6315463,10.800282 L73.6505828,10.800282 L72.2698723,9.11445028 L70.679036,10.800282 L68.3378665,10.800282 L70.8591051,8.14078856 L68.2177753,8.14078856 L68.2177753,6.42591678 L71.3093456,6.42591678 L71.3093456,5.33596368 L70.2587844,5.33596368 L70.0187374,6.12076663 L68.0376385,6.12076663 L69.2983255,3.24324324 L71.1892544,3.24324324 Z M81.9047012,3.7954962 L81.9047012,10.4941158 L75.631526,10.4941158 L75.631526,3.7954962 L81.9047012,3.7954962 Z M80.0137723,5.62659381 L77.5525116,5.62659381 L77.5525116,8.62034302 L80.0137723,8.62034302 L80.0137723,5.62659381 Z M68.3978241,17.8050678 L81.9047012,17.8050678 L81.9047012,11.1781634 L68.3978241,11.1781634 L68.3978241,17.8050678 Z M70.5289355,12.7477038 L79.7736575,12.7477038 L79.7736575,13.7359183 L72.3298976,13.7359183 L71.4894621,15.2182073 L79.7736575,15.2182073 L79.7736575,16.3227132 L70.5289355,16.3227132 L70.5289355,12.7477038 Z M85.8066774,3.24324324 L84.4860802,5.62662658 L84.4860802,7.48676426 L88.0278234,7.48676426 L89.048328,5.62662658 L86.5270893,5.62662658 L87.9077322,3.24324324 L85.8066774,3.24324324 Z M89.0483347,4.40586862 L89.8287245,7.63213504 L91.7796991,7.63213504 L90.9392637,4.40586862 L89.0483347,4.40586862 Z M84.4860531,8.2424878 L84.4860531,17.8050612 L86.5571189,17.8050612 L86.5571189,15.1601206 L89.2584267,15.1601206 L89.2584267,16.3227067 L87.3074521,16.3227067 L88.0577853,17.8050612 L91.419527,17.8050612 L91.419527,8.2424878 L84.4860531,8.2424878 Z M86.5571189,10.9746797 L89.2584267,10.9746797 L89.2584267,9.81209369 L86.5571189,9.81209369 L86.5571189,10.9746797 Z M86.5571189,13.7575443 L89.2584267,13.7575443 L89.2584267,12.5732601 L86.5571189,12.5732601 L86.5571189,13.7575443 Z M92.1398983,3.24324324 L92.1398983,10.2480618 L98.3830846,10.2480618 L98.3830846,8.24246158 L94.1509185,8.24246158 L94.1509185,6.6729868 L98.3830846,5.36506931 L98.3830846,3.50486607 L94.1809751,4.69655775 L94.1809751,3.24324324 L92.1398983,3.24324324 Z M92.1398983,10.8330848 L92.1398983,17.8378378 L98.3830846,17.8378378 L98.3830846,15.8323032 L94.1509185,15.8323032 L94.1509185,14.2628284 L98.3830846,12.9548453 L98.3830846,11.0946421 L94.1809751,12.2863338 L94.1809751,10.8330848 L92.1398983,10.8330848 Z" id="Type-logo" fill="#000000"></path>
                    <path d="M30.9825183,1.00916799 L20.7478209,20 L15.1021507,16.9677802 L20.2182263,7.43605794 L15.1021507,7.43605794 L18.3804362,1.00916799 L30.9825183,1.00916799 Z M10.2346975,0 L15.8803676,3.03221982 L10.7642921,12.5639421 L15.8803676,12.5639421 L12.6020822,18.990832 L0,18.990832 L10.2346975,0 Z" id="Graphic-logo" fill="#D8222C"></path>
                </g>
                <line x1="107.524876" y1="2.17391304" x2="107.524876" y2="19.5652174" id="Line" stroke-opacity="0.1" stroke="#000000" stroke-width="0.869565217" stroke-linecap="square"></line>
                <text id="Supervisor" font-family="BarlowSemiCondensed-SemiBold, Barlow Semi Condensed" font-size="14" font-weight="500" fill="#000000">
                    <tspan x="114.925373" y="15.7391304">Supervisor</tspan>
                </text>
            </g>
        </g>
    </g>
</svg>