<?xml version="1.0" encoding="UTF-8"?>
<svg width="11px" height="12px" viewBox="0 0 11 12" version="1.1" xmlns="http://www.w3.org/2000/svg" xmlns:xlink="http://www.w3.org/1999/xlink">
    <title>Icon</title>
    <g id="电脑端" stroke="none" stroke-width="1" fill="none" fill-rule="evenodd">
        <g id="总览-点位聚合" transform="translate(-29.000000, -277.000000)" fill="#333333" fill-rule="nonzero">
            <g id="Sidebar" transform="translate(16.000000, 63.000000)">
                <g id="Item" transform="translate(0.000000, 200.000000)">
                    <g id="Content" transform="translate(0.000000, 3.000000)">
                        <g id="Icon" transform="translate(4.000000, 3.000000)">
                            <path d="M11.0204082,8 L19.2517007,8 C19.7380952,8 20,8.26332288 20,8.75235109 L20,17.7805643 C20,17.9310345 19.9251701,18.0815047 19.8129252,18.1943574 L19.1768708,18.8338558 C19.1394558,18.8714734 19.0646259,18.9090909 19.0646259,18.8714734 C19.0272109,18.8714734 19.0272109,18.7962382 19.0272109,18.7586207 L19.0272109,9.24137931 C19.0272109,9.1661442 18.9897959,9.12852665 18.952381,9.05329153 C18.914966,8.97805642 18.8401361,8.97805642 18.7653061,8.97805642 L11.7687075,8.97805642 C11.6190476,8.97805642 11.4693878,9.05329153 11.3571429,9.1661442 L10.7210884,9.80564263 C10.6836735,9.84326018 10.6462585,9.9184953 10.6836735,9.9184953 C10.6836735,9.95611285 10.7585034,9.95611285 10.7959184,9.95611285 L17.792517,9.95611285 C17.8673469,9.95611285 17.9047619,9.9937304 17.9795918,10.031348 C18.0544218,10.0689655 18.0544218,10.1442006 18.0544218,10.2194357 L18.0544218,19.7366771 C18.0544218,19.8119122 18.0170068,19.8495298 17.9795918,19.9247649 C17.9421769,20 17.8673469,20 17.792517,20 L9.26190476,20 C9.18707482,20 9.14965986,19.9623825 9.07482994,19.9247649 C9,19.8871473 9,19.8119122 9,19.7366771 L9,9.95611285 C9,9.80564263 9.07482994,9.6551724 9.18707484,9.54231974 L10.5714286,8.15047021 C10.6836735,8.0752351 10.8333333,8 11.0204082,8 Z"></path>
                        </g>
                    </g>
                </g>
            </g>
        </g>
    </g>
</svg>