<?xml version="1.0" encoding="UTF-8"?>
<svg width="14px" height="15px" viewBox="0 0 14 15" version="1.1" xmlns="http://www.w3.org/2000/svg" xmlns:xlink="http://www.w3.org/1999/xlink">
    <title>Icon</title>
    <g id="电脑端备份" stroke="none" stroke-width="1" fill="none" fill-rule="evenodd">
        <g id="实时监测-项目信息" transform="translate(-1153.000000, -173.000000)" fill="#D8222C" fill-rule="nonzero">
            <g id="Content" transform="translate(206.000000, 150.000000)">
                <g id="Button" transform="translate(814.000000, 13.000000)">
                    <g id="Item" transform="translate(133.000000, 10.000000)">
                        <path d="M7.13788386,3.59342797 C9.96184871,3.59342797 12.2680867,5.87121316 12.3816336,8.70291431 L12.3860149,8.92180095 L12.3777631,8.92180095 L12.3777631,13.7516862 L13.4917532,13.7516862 L13.4917532,15 L0.775762742,15 L0.775762742,13.7516862 L1.88975282,13.7516862 L1.88975282,8.92180095 C1.88975282,5.98114227 4.24976143,3.59342797 7.13788386,3.59342797 Z M7.65221025,11.3318798 C7.3284937,10.9992948 6.84291889,10.9992948 6.51920234,11.3318798 C6.1954858,11.6644649 6.1954858,12.1633424 6.51920234,12.4959274 C6.84291889,12.8285124 7.3284937,12.8285124 7.65221025,12.4959274 C7.97592679,12.1633424 7.97592679,11.6644649 7.65221025,11.3318798 Z M7.08570629,6.39810427 C6.51920234,6.39810427 6.0740921,6.82138892 6.0740921,7.35049473 L6.0740921,7.35049473 L6.0740921,7.49158962 L6.08325439,7.51731611 C6.17207655,7.8065752 6.76198975,10.3134873 6.76198975,10.3134873 C6.76198975,10.3840347 6.80245432,10.4545822 6.84291889,10.4898559 C6.96431259,10.6309508 7.2071,10.8425931 7.40942284,10.3840347 C7.44988741,10.3840347 8.09732049,7.4563159 8.09732049,7.31522101 C8.09732049,6.82138892 7.65221025,6.39810427 7.08570629,6.39810427 Z M13.7906744,2.54913728 C14.0468519,2.80531482 14.0639338,3.21050804 13.8427858,3.48936699 L13.7875231,3.55135111 L12.782158,4.5567162 C12.5045341,4.8343401 12.0558277,4.83575097 11.7799442,4.55986746 C11.5237666,4.30368992 11.5066848,3.8984967 11.7278328,3.61963775 L11.7830955,3.55765363 L12.7884605,2.55228854 C13.0660844,2.27466464 13.5147909,2.27325377 13.7906744,2.54913728 Z M1.12346371,2.47728884 L1.21153945,2.55228854 L2.21690455,3.55765363 L2.27216724,3.61963775 C2.49331524,3.8984967 2.47623335,4.30368992 2.22005581,4.55986746 C1.97176065,4.80816262 1.58347894,4.83184933 1.30591772,4.6317159 L1.21784198,4.5567162 L0.21247689,3.55135111 L0.157214198,3.48936699 C-0.0639337998,3.21050804 -0.0468519182,2.80531482 0.209325626,2.54913728 C0.457620784,2.30084212 0.845902496,2.27715541 1.12346371,2.47728884 Z M7.13375797,0 C7.49604773,0 7.79464131,0.274436154 7.83544912,0.627994461 L7.84020188,0.710900474 L7.84020188,2.13270142 C7.84020188,2.52532091 7.52391617,2.8436019 7.13375797,2.8436019 C6.77146821,2.8436019 6.47287463,2.56916574 6.43206682,2.21560744 L6.42731406,2.13270142 L6.42731406,0.710900474 C6.42731406,0.318280984 6.74359977,0 7.13375797,0 Z" id="Icon"></path>
                    </g>
                </g>
            </g>
        </g>
    </g>
</svg>