<?xml version="1.0" encoding="UTF-8"?>
<svg width="18px" height="18px" viewBox="0 0 18 18" version="1.1" xmlns="http://www.w3.org/2000/svg" xmlns:xlink="http://www.w3.org/1999/xlink">
    <title>Icon</title>
    <g id="电脑端备份" stroke="none" stroke-width="1" fill="none" fill-rule="evenodd">
        <g id="实时监测-项目信息" transform="translate(-540.000000, -360.000000)" fill="#000000" fill-rule="nonzero">
            <g id="Content" transform="translate(206.000000, 150.000000)">
                <g id="Circuit-diagram" transform="translate(62.000000, 90.000000)">
                    <g id="Icon" transform="translate(236.000000, 104.000000)">
                        <path d="M48.75,16 C49.1642136,16 49.5,16.3357864 49.5,16.75 L49.49925,18.25 L51.75,18.25 C52.1642136,18.25 52.5,18.5857864 52.5,19 L52.5,21.25 L53.25,21.25 C53.6642136,21.25 54,21.5857864 54,22 L54,28.75 C54,29.1642136 53.6642136,29.5 53.25,29.5 L52.5,29.5 L52.53525,31.75525 C52.5382562,31.9541689 52.4621074,32.1461325 52.3235601,32.2888995 C52.1850128,32.4316665 51.9954196,32.5135386 51.7965,32.5165 L51.777,32.5165 L51,32.50825 C50.5904994,32.5040836 50.2549427,32.832258 50.25,33.24175 L50.25,33.25 C50.25,33.6642136 49.9142136,34 49.5,34 L48,34 C47.5857864,34 47.25,33.6642136 47.25,33.25 C47.25,32.8382717 46.9162283,32.5045 46.5045,32.5045 L46.5,32.5045 L43.48725,32.521 C43.0793512,32.5234747 42.7499925,32.8548437 42.75,33.26275 C42.75,33.67 42.42,34 42.01275,34 L40.5,34 C40.0857864,34 39.75,33.6642136 39.75,33.25 C39.75,32.8357864 39.4142136,32.5 39,32.5 L38.25,32.5 C37.8357864,32.5 37.5,32.1642136 37.5,31.75 L37.5,29.5 L36.75,29.5 C36.3357864,29.5 36,29.1642136 36,28.75 L36,22 C36,21.5857864 36.3357864,21.25 36.75,21.25 L37.5,21.25 L37.5,19 C37.5,18.5857864 37.8357864,18.25 38.25,18.25 L40.5,18.25 L40.5,16.75 C40.5,16.3357864 40.8357864,16 41.25,16 C41.6642136,16 42,16.3357864 42,16.75 L42,18.25 L44.25,18.25 L44.25,16.75 C44.25,16.3357864 44.5857864,16 45,16 C45.4142136,16 45.75,16.3357864 45.75,16.75 L45.75,18.25 L47.99925,18.25 L48,16.75 C48,16.3357864 48.3357864,16 48.75,16 Z M46.599617,22 L43.9000251,22 C43.7755609,22 43.6640352,22.0750146 43.619726,22.1884888 L43.619726,22.1884888 L42.0199308,26.2852901 C41.945131,26.4768033 42.0901306,26.6820726 42.30033,26.6820726 L42.30033,26.6820726 L43.9103251,26.6820726 L43.1101275,29.6310632 C43.0290278,29.929894 43.4165266,30.1312609 43.625526,29.8988695 L43.625526,29.8988695 L47.924913,25.119333 C48.0950125,24.9302588 47.9574129,24.6336719 47.6995137,24.6336719 L47.6995137,24.6336719 L45.945919,24.6336719 L46.8774162,22.4030264 C46.9578159,22.2105377 46.8126163,22 46.599617,22 L46.599617,22 Z"></path>
                    </g>
                </g>
            </g>
        </g>
    </g>
</svg>