<?xml version="1.0" standalone="no"?><!DOCTYPE svg PUBLIC "-//W3C//DTD SVG 1.1//EN" "http://www.w3.org/Graphics/SVG/1.1/DTD/svg11.dtd"><svg t="1654527354345" class="icon" viewBox="0 0 1024 1024" version="1.1" xmlns="http://www.w3.org/2000/svg" p-id="20802" xmlns:xlink="http://www.w3.org/1999/xlink" width="200" height="200"><defs><style type="text/css">@font-face { font-family: feedback-iconfont; src: url("//at.alicdn.com/t/font_1031158_u69w8yhxdu.woff2?t=1630033759944") format("woff2"), url("//at.alicdn.com/t/font_1031158_u69w8yhxdu.woff?t=1630033759944") format("woff"), url("//at.alicdn.com/t/font_1031158_u69w8yhxdu.ttf?t=1630033759944") format("truetype"); }
</style></defs><path d="M837.9904 570.0608H124.5696a29.0304 29.0304 0 0 1-29.0304-29.0304V482.9696a29.0304 29.0304 0 0 1 29.0304-29.0304h713.4208z" fill="#00AAFF" p-id="20803"></path><path d="M561.3056 808.96l-40.96-40.96a28.928 28.928 0 0 1 0-40.96l215.04-215.04-215.04-215.04a28.9792 28.9792 0 0 1 0-40.96l40.96-40.96a28.9792 28.9792 0 0 1 40.96 0l296.96 296.96-296.96 296.96a28.9792 28.9792 0 0 1-40.96 0z" fill="#00AAFF" p-id="20804"></path></svg>