<?xml version="1.0" encoding="UTF-8"?>
<svg width="18px" height="13px" viewBox="0 0 18 13" version="1.1" xmlns="http://www.w3.org/2000/svg" xmlns:xlink="http://www.w3.org/1999/xlink">
    <title>Icon</title>
    <g id="电脑端备份" stroke="none" stroke-width="1" fill="none" fill-rule="evenodd">
        <g id="实时监测-设备详情-V1" transform="translate(-380.000000, -170.000000)" fill="#000000" fill-rule="nonzero">
            <g id="Group" transform="translate(206.000000, 150.000000)">
                <g id="Icons" transform="translate(75.000000, 12.000000)">
                    <g id="Item" transform="translate(90.000000, 0.000000)">
                        <path d="M27,11.2140978 L27,9.89426618 C27,9.86691215 26.9797525,9.84639663 26.9527559,9.84639663 L22.856018,9.84639663 C22.8290214,9.84639663 22.8087739,9.82588112 22.8087739,9.79852709 L22.8087739,8.04786954 C22.8087739,8.02051552 22.7885264,8 22.7615298,8 L19.4004499,8 C17.15973,8 15.3104612,9.79168858 15.1889764,12.0347186 C15.1889764,12.0552341 15.1687289,12.0757496 15.1484814,12.0757496 L12.5298088,12.0757496 C12.2260967,12.0757496 11.591676,12.1988427 11.3959505,12.4313519 C11.2947132,12.554445 11.1934758,12.6980537 11.1124859,12.8690163 C10.8290214,13.4502893 10.8425197,14.3392951 11.0314961,14.770121 C11.503937,15.8574435 12.0776153,16.5071015 12.6310461,16.9857969 C12.8470191,17.1704366 13.1102362,17.3345608 13.231721,17.6764861 C13.2519685,17.7311941 13.2587177,17.7859022 13.2654668,17.8406102 C13.3194601,18.6338769 13.1709786,18.9210942 12.8942632,19.2425039 C12.7322835,19.4271436 12.0843645,19.6254603 11.8143982,19.6254603 L9.04724409,19.6254603 C9.02024747,19.6254603 9,19.6459758 9,19.6733298 L9,20.9521305 C9,20.9794845 9.02024747,21 9.04724409,21 L12.2193476,21 C12.7727784,21 13.5219348,20.6375592 14.007874,20.0836402 C14.6625422,19.338243 14.6827897,18.3945292 14.6287964,17.8064177 C14.5950506,17.4644924 14.5005624,17.1225671 14.3318335,16.8216728 C14.1226097,16.445555 13.8661417,16.2472383 13.5151856,15.946344 C13.0697413,15.5565492 12.7592801,15.2283009 12.408324,14.5581273 C12.3070866,14.3666491 12.2328459,13.9768543 12.2463442,13.7580221 L12.2463442,13.7511836 C12.2598425,13.5733824 12.408324,13.4297738 12.583802,13.4297738 C13.4544432,13.4229353 14.4533183,13.4434508 15.1484814,13.4434508 C15.1687289,13.4434508 15.1889764,13.4639663 15.1889764,13.4844819 C15.3239595,15.7138348 17.1664792,17.4986849 19.4004499,17.4986849 L22.7615298,17.4986849 C22.7885264,17.4986849 22.8087739,17.4781694 22.8087739,17.4508154 L22.8087739,15.6933193 C22.8087739,15.6659653 22.8290214,15.6454498 22.856018,15.6454498 L26.9527559,15.6454498 C26.9797525,15.6454498 27,15.6249342 27,15.5975802 L27,14.3187796 C27,14.2914256 26.9797525,14.27091 26.9527559,14.27091 L22.856018,14.27091 C22.8290214,14.27091 22.8087739,14.2503945 22.8087739,14.2230405 L22.8087739,11.2346134 C22.8087739,11.2072593 22.8290214,11.1867438 22.856018,11.1867438 L27,11.2140978 Z" id="Icon"></path>
                    </g>
                </g>
            </g>
        </g>
    </g>
</svg>