<?xml version="1.0" encoding="UTF-8"?>
<svg width="12px" height="16px" viewBox="0 0 12 16" version="1.1" xmlns="http://www.w3.org/2000/svg" xmlns:xlink="http://www.w3.org/1999/xlink">
    <title>Icon</title>
    <g id="小程序" stroke="none" stroke-width="1" fill="none" fill-rule="evenodd" fill-opacity="0.5">
        <g id="状态图标" transform="translate(-282.000000, -78.000000)" fill="#000000" fill-rule="nonzero">
            <g id="Item" transform="translate(256.000000, 64.000000)">
                <path d="M34.7272727,15.0666667 L34.7272727,16.6666667 L36.3636364,16.6666667 L36.3636364,27.3333333 L34.7272727,27.3333333 L34.7272727,28.9333333 L38,28.9333333 L38,15.0666667 L34.7272727,15.0666667 Z M26,28.9333333 L33.6363636,30 L33.6363636,14 L26,15.0666667 L26,28.9333333 Z M31.5909091,21.0666667 C32.2646628,21.1474484 32.7491127,21.7395538 32.6818182,22.4 C32.7491127,23.0604462 32.2646628,23.6525516 31.5909091,23.7333333 C30.9171554,23.6525516 30.4327054,23.0604462 30.5,22.4 C30.4327054,21.7395538 30.9171554,21.1474484 31.5909091,21.0666667 L31.5909091,21.0666667 Z" id="Icon"></path>
            </g>
        </g>
    </g>
</svg>