<?xml version="1.0" encoding="UTF-8"?>
<svg width="15px" height="15px" viewBox="0 0 15 15" version="1.1" xmlns="http://www.w3.org/2000/svg" xmlns:xlink="http://www.w3.org/1999/xlink">
    <title>Combined Shape</title>
    <g id="小程序" stroke="none" stroke-width="1" fill="none" fill-rule="evenodd" fill-opacity="0.5">
        <g id="状态图标" transform="translate(-152.000000, -16.000000)" fill="#000000" fill-rule="nonzero">
            <g id="Item" transform="translate(128.000000, 0.000000)">
                <path d="M31.4962474,17.5938425 C35.2274931,17.5938425 38.2499983,20.5953228 38.2499983,24.2969213 C38.2499983,27.9985197 35.2274931,31 31.4962474,31 C27.7650017,31 24.7499983,27.9985197 24.7499983,24.2969213 C24.7499983,20.5953228 27.7650017,17.5938425 31.4962474,17.5938425 Z M31.8749991,20.572981 L30.7500017,20.572981 L30.7500017,25.0416887 L34.3087496,27.1680599 L34.8749922,26.2482501 L31.8749991,24.4831088 L31.8749991,20.572981 Z M35.5537432,16.0037265 L39,18.8748824 L38.0362427,20.0144011 L34.5899859,17.1432452 L35.5537432,16.0037265 Z M27.4462568,16 L28.4099968,17.1395187 C28.4099968,17.1395187 24.9637573,20.0106746 24.9637573,20.0106746 L24.9637573,20.0106746 L24,18.8711559 L27.4462568,16 Z" id="Combined-Shape"></path>
            </g>
        </g>
    </g>
</svg>