<?xml version="1.0" encoding="UTF-8"?>
<svg width="10px" height="15px" viewBox="0 0 10 15" version="1.1" xmlns="http://www.w3.org/2000/svg" xmlns:xlink="http://www.w3.org/1999/xlink">
    <title>Icon</title>
    <g id="小程序" stroke="none" stroke-width="1" fill="none" fill-rule="evenodd" fill-opacity="0.5">
        <g id="状态图标" transform="translate(-219.000000, -79.000000)" fill="#000000" fill-rule="nonzero">
            <g id="Item" transform="translate(192.000000, 64.000000)">
                <path d="M32.001915,15 L32.616794,16.0445026 L36.3079953,22.315445 C36.3349805,22.3468586 36.3542557,22.3841623 36.3658209,22.4253927 C36.7821652,23.1832461 37.0019025,24.039267 36.9999876,24.9070681 C36.9999876,27.7146597 34.7563415,30 31.9999875,30 C29.2436336,30 27,27.7146597 27,24.9070681 C27,24.033377 27.2255199,23.1695026 27.6495743,22.4037958 C27.6553569,22.3861257 27.663067,22.3704188 27.6727046,22.354712 L27.6727046,22.354712 L31.3870361,16.0445026 L32.001915,15 Z M31.4562892,25.9448099 C31.1698934,26.2372076 31.1698934,26.6758041 31.4562892,26.9682018 C31.742685,27.2605994 32.1722788,27.2605994 32.4586746,26.9682018 C32.7450704,26.6758041 32.7450704,26.2372076 32.4586746,25.9448099 C32.1722788,25.6524123 31.742685,25.6524123 31.4562892,25.9448099 Z M31.9574819,20.9375 C31.4562892,20.9375 31.062495,21.3760965 31.062495,21.9243421 L31.062495,22.0705409 L31.062495,22.0705409 C31.0982944,22.1436404 31.6710861,24.9945175 31.6710861,24.9945175 C31.6710861,25.067617 31.7068856,25.1407164 31.742685,25.1772661 C31.8500835,25.3234649 32.0648803,25.5427632 32.2438777,25.067617 C32.2543193,25.067617 32.3104424,24.8095481 32.3847113,24.4403231 L32.452172,24.1000491 C32.6287221,23.1984421 32.8524689,21.9791667 32.8524689,21.8877924 C32.8524689,21.3760965 32.4586746,20.9375 31.9574819,20.9375 Z" id="Icon"></path>
            </g>
        </g>
    </g>
</svg>