<?xml version="1.0" encoding="UTF-8"?>
<svg width="13px" height="13px" viewBox="0 0 13 13" version="1.1" xmlns="http://www.w3.org/2000/svg" xmlns:xlink="http://www.w3.org/1999/xlink">
    <title>Dot</title>
    <g id="电脑端备份" stroke="none" stroke-width="1" fill="none" fill-rule="evenodd">
        <g id="实时监测-项目信息" transform="translate(-543.000000, -492.000000)" fill-rule="nonzero">
            <g id="Content" transform="translate(206.000000, 150.000000)">
                <g id="Circuit-diagram" transform="translate(62.000000, 90.000000)">
                    <g id="Dot" transform="translate(221.000000, 241.000000)">
                        <g transform="translate(54.000000, 11.000000)">
                            <path d="M6.49959737,0 C2.90978072,0 0,2.91009322 0,6.50020131 C0,10.0899068 2.90978072,13 6.49959737,13 C10.0902193,13 13,10.0895042 13,6.50020131 C13,2.90969061 10.0902193,0 6.49959737,0" id="Icon" fill="#000000"></path>
                            <path d="M3.15417493,2.53687014 L4.30085481,3.68391712 L3.71664395,4.26810988 L2.56996407,3.1210629 L3.15417493,2.53687014 Z M9.96057359,2.53687014 L10.5447844,3.1210629 L9.39810456,4.26810988 L8.81389371,3.68391712 L9.96057359,2.53687014 Z M4.87258424,1.48041129 L5.55825694,2.949952 L4.80977453,3.29901824 L4.12490709,1.82907492 L4.87258424,1.48041129 Z M8.26752973,1.47839822 L9.01601214,1.82786708 L8.3311447,3.2978104 L7.58185704,2.94834154 L8.26752973,1.47839822 Z M7.01576437,1.2344142 L7.01576437,2.85614296 L6.18917245,2.85614296 L6.18917245,1.2344142 L7.01576437,1.2344142 Z" id="Icon" fill="#FFFFFF"></path>
                            <path d="M5.73274383,8.51155447 L4.52524748,8.51155447 C4.36759796,8.51155447 4.25884828,8.35760246 4.31494812,8.21396758 L5.51479449,5.14136657 C5.54802643,5.05626097 5.63167071,5 5.72501886,5 L7.74971274,5 C7.90946226,5 8.01836193,5.15790325 7.95806212,5.30226983 L7.25943922,6.97525396 L8.57463526,6.97525396 C8.76805967,6.97525396 8.87125936,7.19769411 8.74368474,7.33949971 L5.51914448,10.9241521 C5.36239496,11.0984457 5.07177083,10.9474205 5.13259565,10.7232974 L5.73274383,8.51155447 Z" id="Icon" fill="#FFFFFF"></path>
                        </g>
                    </g>
                </g>
            </g>
        </g>
    </g>
</svg>