<?xml version="1.0" encoding="UTF-8"?>
<svg width="13px" height="13px" viewBox="0 0 13 13" version="1.1" xmlns="http://www.w3.org/2000/svg" xmlns:xlink="http://www.w3.org/1999/xlink">
    <title>Icon</title>
    <g id="电脑端备份" stroke="none" stroke-width="1" fill="none" fill-rule="evenodd" opacity="0.5">
        <g id="实时监测-项目信息" transform="translate(-258.000000, -106.000000)" fill="#000000" fill-rule="nonzero">
            <g id="Info" transform="translate(206.000000, 66.000000)">
                <g transform="translate(52.000000, 40.000000)" id="Icon">
                    <path d="M6.5,0 C10.0898535,0 13,2.91014648 13,6.5 C13,10.0898535 10.0898535,13 6.5,13 C2.91014648,13 0,10.0898535 0,6.5 C0,2.91014648 2.91014648,0 6.5,0 Z M6.99801172,5.36478516 C6.49710547,5.36478516 5.32911133,5.87043945 4.31348633,6.73331445 L4.31348633,6.73331445 L4.52189258,7.08106445 L4.62403947,7.01547356 C4.94655408,6.81976775 5.39653105,6.63975 5.50948633,6.63975 C5.60658008,6.63975 5.59276758,6.76883594 5.50948633,7.09053516 L5.50948633,7.09053516 L5.03028906,9.10010156 L4.98906763,9.27184854 C4.77070544,10.2597389 5.06608183,10.4907207 5.46172656,10.4907207 C5.87894531,10.4907207 6.95733594,10.1038945 7.94454883,9.0989082 L7.94454883,9.0989082 L7.70770508,8.77720898 L7.57338763,8.87828875 C7.21667672,9.13146776 6.88024154,9.25404492 6.7686582,9.25404492 C6.67156445,9.25404492 6.63010156,9.12536523 6.7272207,8.75194531 L6.7272207,8.75194531 L7.27629297,6.63936914 L7.31418216,6.48854605 C7.47355939,5.8021697 7.38741589,5.36478516 6.99801172,5.36478516 Z M7.08918945,2.5962168 C6.3932832,2.5962168 6.04591406,3.16265625 6.04591406,3.57515234 C6.03210156,4.06417578 6.32419531,4.36023047 6.82550781,4.36023047 C7.42312695,4.36023047 7.8825957,3.88380078 7.8825957,3.36908203 C7.8825957,2.95699219 7.61812695,2.5962168 7.08918945,2.5962168 Z"></path>
                </g>
            </g>
        </g>
    </g>
</svg>