<?xml version="1.0" encoding="UTF-8"?>
<svg width="16px" height="11px" viewBox="0 0 16 11" version="1.1" xmlns="http://www.w3.org/2000/svg" xmlns:xlink="http://www.w3.org/1999/xlink">
    <title>Icon</title>
    <g id="电脑端备份" stroke="none" stroke-width="1" fill="none" fill-rule="evenodd">
        <g id="实时监测-设备详情-V1" transform="translate(-472.000000, -170.000000)" fill="#000000">
            <g id="Group" transform="translate(206.000000, 150.000000)">
                <g id="Icons" transform="translate(75.000000, 12.000000)">
                    <g id="Item" transform="translate(180.000000, 0.000000)">
                        <path d="M17.9038973,16.3472624 C18.5016332,15.7402521 19.4695937,15.7402521 20.0671492,16.3472624 C20.6647047,16.9542727 20.6647047,17.937732 20.0671492,18.5447423 C19.4695937,19.1517526 18.5016332,19.1517526 17.9038973,18.5447423 C17.3063418,17.937732 17.3063418,16.9542727 17.9038973,16.3472624 Z M13.8646965,14.0005592 C16.7494533,11.2965043 21.220655,11.2955879 24.1328358,13.9825981 C24.2573265,14.0973289 24.2638217,14.2938009 24.144924,14.4143965 L24.144924,14.4143965 L22.9916708,15.5860803 C22.8825159,15.6967791 22.7075072,15.7026439 22.5927593,15.5983598 C21.6040503,14.6995741 20.3465136,14.2105935 19.0155454,14.2105935 C17.6676175,14.204912 16.3983534,14.7043392 15.4083815,15.6143048 C15.2936335,15.7196886 15.1175423,15.7141903 15.0083874,15.603125 L15.0083874,15.603125 L13.8542321,14.4308914 C13.7362365,14.3108455 13.7418296,14.1156565 13.8646965,14.0005592 Z M11.0887699,11.196014 C15.5020563,6.93576221 22.4574793,6.93557893 26.9099172,11.1899659 C27.0291757,11.3037804 27.0295365,11.4965868 26.9138864,11.6138834 L26.9138864,11.6138834 L25.7606332,12.7852007 C25.6507566,12.8969991 25.4723199,12.9030472 25.3584741,12.7952809 C21.7698936,9.40192477 16.19307,9.40137494 12.6425584,12.7989464 C12.528893,12.9078124 12.3493738,12.9023141 12.2389559,12.7899659 L12.2389559,12.7899659 L11.0860635,11.6190152 C10.9709547,11.5019018 10.9707743,11.3100118 11.0887699,11.196014 Z" id="Icon"></path>
                    </g>
                </g>
            </g>
        </g>
    </g>
</svg>