<?xml version="1.0" encoding="UTF-8"?>
<svg width="18px" height="15px" viewBox="0 0 18 15" version="1.1" xmlns="http://www.w3.org/2000/svg" xmlns:xlink="http://www.w3.org/1999/xlink">
    <title>Icon</title>
    <g id="小程序" stroke="none" stroke-width="1" fill="none" fill-rule="evenodd" fill-opacity="0.5">
        <g id="状态图标" transform="translate(-87.000000, -144.000000)" fill="#000000">
            <g id="Item" transform="translate(64.000000, 128.000000)">
                <path d="M29.6801909,23.3684211 L30.2816229,25.9122807 C29.2505967,26.0877193 28.2195704,26.6140351 27.4463007,27.4035088 C27.3088305,27.4736842 27.1713604,27.4877193 27.0338902,27.4905263 L26.9307876,27.4912281 L25.6420048,26.0877193 C25.4701671,25.9122807 25.4701671,25.7368421 25.6420048,25.5614035 C26.8448687,24.4210526 28.2195704,23.7192982 29.6801909,23.3684211 Z M33.7183771,23.3684211 C35.0930788,23.7192982 36.3818616,24.4210526 37.4128878,25.3859649 C37.5632458,25.5394737 37.5820406,25.6929825 37.4692721,25.8464912 L37.4128878,25.9122807 L36.124105,27.3157895 C36.0381862,27.4035088 35.8663484,27.4035088 35.6945107,27.3157895 C35.0071599,26.6920078 34.2519226,26.2761533 33.4287987,26.0066181 L33.1169451,25.9122807 L33.7183771,23.3684211 Z M31.7422434,16 C32.9451074,16 33.8902148,17.0526316 33.8902148,18.2807018 C33.8902148,18.6315789 32.5155131,25.9122807 32.4295943,25.9122807 C32,27.0526316 31.4844869,26.5263158 31.2267303,26.1754386 C31.1408115,26.0877193 31.0548926,25.9122807 31.0548926,25.7368421 C31.0548926,25.7368421 30.7464415,24.2016329 30.4126244,22.5669769 L30.3008009,22.0203779 C29.9794487,20.4526103 29.6636664,18.9398141 29.6011972,18.7385027 L29.5942721,18.7192982 L29.5942721,18.3684211 C29.5942721,17.0526316 30.5393795,16 31.7422434,16 Z M34.7494033,18.9824561 C36.9832936,19.5087719 39.1312649,20.4736842 40.9355609,22.1403509 C41.0042959,22.2807018 41.018043,22.4210526 40.9768019,22.5614035 L40.9355609,22.6666667 L39.646778,23.8947368 C39.5608592,23.9824561 39.3031026,23.9824561 39.2171838,23.8947368 C37.8539379,22.6666667 36.2661575,21.8206628 34.5935529,21.4280442 L34.2338902,21.3508772 L34.7494033,18.9824561 Z M28.6491647,19.1578947 L29.2505967,21.5263158 C27.7040573,21.9649123 26.1575179,22.754386 24.8687351,23.8947368 C24.7312649,23.9649123 24.5937947,23.9789474 24.4563246,23.9368421 L24.353222,23.8947368 L23.0644391,22.6666667 C22.9785203,22.4912281 22.9785203,22.3157895 23.0644391,22.1403509 C24.6968974,20.6491228 26.5871122,19.6842105 28.6491647,19.1578947 Z M30.5393795,28.0175439 C29.8520286,28.7192982 29.8520286,29.7719298 30.5393795,30.4736842 C31.2267303,31.1754386 32.2577566,31.1754386 32.9451074,30.4736842 C33.6324582,29.7719298 33.6324582,28.7192982 32.9451074,28.0175439 C32.2577566,27.3157895 31.2267303,27.3157895 30.5393795,28.0175439 Z" id="Icon"></path>
            </g>
        </g>
    </g>
</svg>