<?xml version="1.0" encoding="UTF-8"?>
<svg width="25px" height="22px" viewBox="0 0 25 22" version="1.1" xmlns="http://www.w3.org/2000/svg" xmlns:xlink="http://www.w3.org/1999/xlink">
    <title>Icon</title>
    <g id="电脑端备份" stroke="none" stroke-width="1" fill="none" fill-rule="evenodd">
        <g id="实时监测-项目信息" transform="translate(-537.000000, -254.000000)" fill="#000000" fill-rule="nonzero">
            <g id="Content" transform="translate(206.000000, 150.000000)">
                <g id="Circuit-diagram" transform="translate(62.000000, 90.000000)">
                    <g id="Icon" transform="translate(236.000000, 0.000000)">
                        <path d="M56.2309345,24.9012567 L50.2309345,24.9012567 L49.4414608,21.1095153 L53.0730397,21.1095153 C53.546724,21.1095153 53.8625134,20.7935368 53.8625134,20.3195691 L53.8625134,20.1615799 C53.8625134,19.6876122 53.546724,19.3716338 53.0730397,19.3716338 L49.1256713,19.3716338 L48.1783029,14.6319569 C48.1783029,14.3159785 47.8625134,14.1579892 47.7046187,14 L47.546724,14 L43.4414608,14 L42.9677766,14 L42.8098818,14 L42.6519871,14.1579892 L42.4940924,14.3159785 L42.4940924,14.4739677 L41.546724,19.2136445 L37.4414608,19.2136445 C36.9677766,19.2136445 36.6519871,19.529623 36.6519871,20.0035907 L36.6519871,20.1615799 C36.6519871,20.6355476 36.9677766,20.951526 37.4414608,20.951526 L41.0730397,20.951526 L40.2835661,24.7432675 L33.8098818,24.7432675 C33.3361976,24.7432675 33.0204082,25.059246 33.0204082,25.5332136 L33.0204082,25.6912029 C33.0204082,26.1651706 33.3361976,26.481149 33.8098818,26.481149 L39.9677766,26.481149 L38.0730397,35.0125673 L38.0730397,35.3285458 C38.0730397,35.6445242 38.0730397,35.9605027 38.546724,35.9605027 L38.8625134,35.9605027 C39.1783029,35.9605027 39.3361976,35.8025135 39.4940924,35.6445242 L45.0204082,30.5888689 L50.546724,35.6445242 C50.7046187,35.8025135 51.0204082,35.9605027 51.1783029,35.9605027 C51.1783029,35.9605027 51.4940924,36.1184919 51.8098818,35.8025135 C51.8098818,35.8025135 51.9677766,35.6445242 51.9677766,35.3285458 L51.9677766,35.0125673 L50.3888292,26.481149 L56.2309345,26.481149 C56.7046187,26.481149 57.0204082,26.3231598 57.0204082,25.8491921 L57.0204082,25.5332136 C57.0204082,25.2172352 56.7046187,24.9012567 56.2309345,24.9012567 Z M43.915145,15.5798923 L46.5993555,15.5798923 L47.3888292,19.2136445 L43.1256713,19.2136445 L43.915145,15.5798923 Z M42.8098818,21.1095153 L47.546724,21.1095153 L48.3361976,24.9012567 L42.0204082,24.9012567 L42.8098818,21.1095153 Z M40.2835661,32.8007181 L41.3888292,27.4290844 L43.7572503,29.6409336 L40.2835661,32.8007181 Z M43.4414608,26.7971275 L46.915145,26.7971275 L45.1783029,28.3770197 L43.4414608,26.7971275 Z M46.4414608,29.6409336 L48.8098818,27.4290844 L49.915145,32.8007181 L46.4414608,29.6409336 L46.4414608,29.6409336 Z"></path>
                    </g>
                </g>
            </g>
        </g>
    </g>
</svg>