<?xml version="1.0" encoding="UTF-8"?>
<svg width="15px" height="13px" viewBox="0 0 15 13" version="1.1" xmlns="http://www.w3.org/2000/svg" xmlns:xlink="http://www.w3.org/1999/xlink">
    <title>Icon</title>
    <g id="电脑端备份" stroke="none" stroke-width="1" fill="none" fill-rule="evenodd">
        <g id="数据报表-统计报表" transform="translate(-1172.000000, -165.000000)" fill="#D8222C" fill-rule="nonzero">
            <g id="Filter" transform="translate(206.000000, 150.000000)">
                <path d="M967.25,15 C967.335938,15 967.40625,15.0664773 967.40625,15.1477273 L967.40625,15.1477273 L967.40625,26.6704545 L980.84375,26.6704545 C980.929688,26.6704545 981,26.7369318 981,26.8181818 L981,26.8181818 L981,27.8522727 C981,27.9335227 980.929688,28 980.84375,28 L980.84375,28 L966.15625,28 C966.070312,28 966,27.9335227 966,27.8522727 L966,27.8522727 L966,15.1477273 C966,15.0664773 966.070312,15 966.15625,15 L966.15625,15 Z M979.169922,17.184517 C979.267578,17.0921875 979.4375,17.1568182 979.4375,17.2897727 L979.4375,17.2897727 L979.4375,25.3409091 C979.4375,25.4221591 979.367188,25.4886364 979.28125,25.4886364 L979.28125,25.4886364 L968.8125,25.4886364 C968.726562,25.4886364 968.65625,25.4221591 968.65625,25.3409091 L968.65625,25.3409091 L968.65625,22.3826705 C968.65625,22.343892 968.671875,22.3069602 968.701172,22.2792614 L968.701172,22.2792614 L972.392578,18.778125 C972.453125,18.7208807 972.552734,18.7208807 972.613281,18.778125 L972.613281,18.778125 L975.0625,21.0678977 Z" id="Icon"></path>
            </g>
        </g>
    </g>
</svg>