<?xml version="1.0" encoding="UTF-8"?>
<svg width="15px" height="15px" viewBox="0 0 15 15" version="1.1" xmlns="http://www.w3.org/2000/svg" xmlns:xlink="http://www.w3.org/1999/xlink">
    <title>Icon</title>
    <g id="电脑端备份" stroke="none" stroke-width="1" fill="none" fill-rule="evenodd">
        <g id="实时监测-项目信息" transform="translate(-1040.000000, -174.000000)" fill="#000000" fill-rule="nonzero">
            <g id="Content" transform="translate(206.000000, 150.000000)">
                <g id="Button" transform="translate(814.000000, 13.000000)">
                    <g id="Item" transform="translate(20.000000, 11.000000)">
                        <path d="M13.4096163,7.94985427 L14.5667414,8.73940755 C14.6687752,8.80902935 14.7569183,8.89708359 14.8266429,8.99904718 C15.1360953,9.4515829 15.0201033,10.0692963 14.5675676,10.3787487 L14.5675676,10.3787487 L8.06292822,14.8267429 C7.72524812,15.0576549 7.28049307,15.0577631 6.94270066,14.8270154 L6.94270066,14.8270154 L0.432833558,10.3800932 C0.330233101,10.3100063 0.241703291,10.2212795 0.171844624,10.1185235 C-0.136380679,9.66515111 -0.0187157079,9.04775419 0.434656692,8.73952889 L0.434656692,8.73952889 L1.59619883,7.94985427 L3.03833386,8.93523875 L2.11433118,9.55847339 L7.50290756,13.2389266 L12.8828484,9.55847339 L11.9674813,8.93523875 L13.4096163,7.94985427 Z M6.83053696,0.178679055 C7.17153903,-0.059345609 7.62476362,-0.0595810857 7.96601284,0.178089109 L7.96601284,0.178089109 L14.0469823,4.41330816 C14.143234,4.48034468 14.2268426,4.56390991 14.2939291,4.66012679 C14.607482,5.1098311 14.4971094,5.7285733 14.0474051,6.04212617 L14.0474051,6.04212617 L7.97445495,10.276444 C7.6333294,10.5142912 7.18010511,10.5142912 6.83897955,10.276444 L6.83897955,10.276444 L0.764736114,6.04122444 C0.668803485,5.97433615 0.585445593,5.89102159 0.518507434,5.79512375 C0.204720782,5.34558253 0.314771601,4.72678303 0.764312819,4.41299638 L0.764312819,4.41299638 Z" id="Icon"></path>
                    </g>
                </g>
            </g>
        </g>
    </g>
</svg>