<?xml version="1.0" encoding="UTF-8"?>
<svg width="20px" height="15px" viewBox="0 0 20 15" version="1.1" xmlns="http://www.w3.org/2000/svg" xmlns:xlink="http://www.w3.org/1999/xlink">
    <title>Icon</title>
    <g id="小程序" stroke="none" stroke-width="1" fill="none" fill-rule="evenodd" fill-opacity="0.5">
        <g id="状态图标" transform="translate(-22.000000, -145.000000)" fill="#000000" fill-rule="nonzero">
            <g id="Item" transform="translate(0.000000, 128.000000)">
                <path d="M24.1867462,26.4601231 C24.1969574,26.406791 24.2037648,26.3534588 24.2037648,26.3001267 C24.2037648,26.2467945 24.1969574,26.1934624 24.1867462,26.1401302 C24.176535,26.0867981 24.1595164,26.0367992 24.139094,25.9868003 C24.1186717,25.9368014 24.0914418,25.8901358 24.0608083,25.8468034 C24.0301748,25.8001378 23.9961375,25.7601387 23.9552928,25.7234728 C23.9178518,25.686807 23.8736034,25.6501411 23.8293549,25.6201418 C23.7851065,25.5901424 23.7340506,25.5668096 23.6863984,25.5434768 C23.6353425,25.5234773 23.5842866,25.506811 23.529827,25.4968112 C23.4209078,25.4734784 23.3085848,25.4734784 23.2030693,25.4968112 C23.1486097,25.506811 23.0975538,25.5234773 23.0464979,25.5434768 C22.995442,25.5634764 22.9477898,25.5901424 22.9035414,25.6201418 C22.8558892,25.6501411 22.8150445,25.6834737 22.7776035,25.7234728 C22.7401625,25.7601387 22.7027215,25.803471 22.672088,25.8468034 C22.6414544,25.8901358 22.6176283,25.9401347 22.5938023,25.9868003 C22.5733799,26.0367992 22.5563613,26.0867981 22.5461501,26.1401302 C22.5359389,26.1934624 22.5291315,26.2467945 22.5291315,26.3001267 C22.5291315,26.3534588 22.5359389,26.406791 22.5461501,26.4601231 C22.5563613,26.5134553 22.5733799,26.5634541 22.5938023,26.613453 C22.6142246,26.6634519 22.6414544,26.7101176 22.672088,26.7534499 C22.7027215,26.8001156 22.7367588,26.8401147 22.7776035,26.8767805 C22.8150445,26.9134464 22.8592929,26.9501122 22.9035414,26.9801116 C22.9477898,27.0101109 22.9988457,27.0334437 23.0464979,27.0567765 C23.0975538,27.0767761 23.1486097,27.0934424 23.2030693,27.1034421 C23.2575289,27.1134419 23.3119885,27.1201084 23.3664481,27.1201084 C23.4209078,27.1201084 23.4753674,27.1134419 23.529827,27.1034421 C23.5842866,27.0934424 23.6353425,27.0767761 23.6863984,27.0567765 C23.7374543,27.036777 23.7851065,27.0101109 23.8293549,26.9801116 C23.8770071,26.9501122 23.9178518,26.9167796 23.9552928,26.8767805 C23.9927338,26.8401147 24.0301748,26.7967823 24.0608083,26.7534499 C24.0914418,26.7101176 24.1152679,26.6634519 24.139094,26.613453 C24.1595164,26.5634541 24.176535,26.510122 24.1867462,26.4601231 Z M31.9982981,30.3600364 C31.5353914,30.3600364 31.1609815,30.726695 31.1609815,31.1800182 C31.1609815,31.6333415 31.5353914,32 31.9982981,32 C32.4612049,32 32.8356148,31.6333415 32.8356148,31.1800182 C32.8356148,30.726695 32.4612049,30.3600364 31.9982981,30.3600364 Z M24.3603362,27.7400947 C24.0335785,28.0600876 24.0335785,28.580076 24.3603362,28.9000689 C24.5237151,29.0600653 24.7381499,29.1400636 24.9525846,29.1400636 C25.1670194,29.1400636 25.3814541,29.0600653 25.544833,28.9000689 C25.8715907,28.580076 25.8715907,28.0600876 25.544833,27.7400947 C25.2180753,27.4201018 24.687094,27.4201018 24.3603362,27.7400947 L24.3603362,27.7400947 Z M36.5660989,29.1667296 C36.1644592,29.3933913 36.0283101,29.8933801 36.2597635,30.2867047 C36.4129312,30.5500322 36.6954405,30.6966956 36.9847572,30.6966956 C37.1277137,30.6966956 37.2706702,30.6600298 37.4034156,30.5866981 C37.8050553,30.3600364 37.9412043,29.8600476 37.7097509,29.466723 C37.4748938,29.0733984 36.9643349,28.940068 36.5660989,29.1667296 L36.5660989,29.1667296 Z M27.4339011,29.1633964 C27.0356651,28.9367347 26.5217025,29.0700651 26.2902491,29.4633897 C26.0587957,29.8567143 26.1949447,30.3567032 26.5931807,30.5833648 C26.725926,30.6600298 26.8688825,30.6933624 27.011839,30.6933624 C27.3011558,30.6933624 27.5802613,30.546699 27.7368328,30.2833715 C27.9716899,29.8900469 27.8355408,29.390058 27.4339011,29.1633964 Z M38.455167,27.7434279 C38.1284093,28.0634208 38.1284093,28.580076 38.455167,28.9034021 C38.6185459,29.0633986 38.8329806,29.1433968 39.0474154,29.1433968 C39.2618501,29.1433968 39.4762849,29.0633986 39.6396638,28.9034021 C39.9664215,28.5834093 39.9664215,28.0634208 39.6396638,27.7434279 C39.312906,27.423435 38.7819247,27.423435 38.455167,27.7434279 Z M29.6361121,30.0567099 C29.1902239,29.9400458 28.7307209,30.20004 28.6115904,30.636697 C28.49246,31.0733539 28.7579507,31.5233439 29.2038388,31.640008 C29.2753171,31.6600076 29.350199,31.6666741 29.4216773,31.6666741 C29.7926835,31.6666741 30.1296524,31.4266794 30.2283604,31.0600209 C30.3474909,30.6233639 30.0820002,30.1733739 29.6361121,30.0567099 L29.6361121,30.0567099 Z M34.3638879,30.0567099 C33.9179998,30.1733739 33.6525091,30.6233639 33.7716396,31.0600209 C33.8703476,31.4266794 34.2107203,31.6666741 34.5783227,31.6666741 C34.649801,31.6666741 34.7212792,31.6566743 34.7927575,31.640008 C35.2386456,31.5233439 35.5041363,31.0733539 35.3850058,30.636697 C35.2692791,30.20004 34.8097761,29.9400458 34.3638879,30.0567099 L34.3638879,30.0567099 Z M40.4735767,25.4968112 C40.4191171,25.506811 40.3680612,25.5234773 40.3170053,25.5434768 C40.2659494,25.5634764 40.2182972,25.5901424 40.1740488,25.6201418 C40.1263966,25.6501411 40.0855519,25.6834737 40.0481109,25.7234728 C39.8915395,25.8768027 39.8030426,26.0867981 39.8030426,26.3034599 C39.8030426,26.5201218 39.8915395,26.7301171 40.0481109,26.883447 C40.0855519,26.9201129 40.1298004,26.9567787 40.1740488,26.9867781 C40.2182972,27.0167774 40.2659494,27.0401102 40.3170053,27.063443 C40.3680612,27.0834426 40.4191171,27.1001089 40.4735767,27.1101087 C40.5280363,27.1201084 40.582496,27.126775 40.6369556,27.126775 C40.6914152,27.126775 40.7458748,27.1201084 40.8003345,27.1101087 C40.8547941,27.1001089 40.90585,27.0834426 40.9569059,27.063443 C41.0079618,27.0434435 41.0556139,27.0167774 41.0998624,26.9867781 C41.1475145,26.9567787 41.1883593,26.9234461 41.2258002,26.883447 C41.3823717,26.7301171 41.4708685,26.5201218 41.4708685,26.3034599 C41.4708685,26.0867981 41.3823717,25.8768027 41.2258002,25.7234728 C41.0317878,25.5301438 40.7424711,25.443479 40.4735767,25.4968112 Z M26.3753422,25.5134775 C26.4127832,25.4768116 26.4502242,25.4334793 26.4808577,25.3901469 C26.5114913,25.3468145 26.5387211,25.2968156 26.5591434,25.25015 C26.5795658,25.2001511 26.5965844,25.1501522 26.6067956,25.0968201 C26.6170068,25.0434879 26.6238142,24.9901558 26.6238142,24.9368236 C26.6238142,24.8834915 26.6170068,24.8301593 26.6067956,24.7768272 C26.5965844,24.723495 26.5795658,24.6734961 26.5591434,24.6234973 C26.5387211,24.5734984 26.5114913,24.5268327 26.4808577,24.4835004 C26.4502242,24.4368347 26.4161869,24.3968356 26.3753422,24.3601698 C26.3379012,24.3235039 26.2936528,24.2901713 26.2494043,24.2568387 C26.2051559,24.2268394 26.1541,24.2035066 26.1064478,24.1801738 C26.0553919,24.1601742 26.0043361,24.1435079 25.9498764,24.1335081 C25.8409572,24.1135086 25.7320379,24.1135086 25.6231187,24.1335081 C25.5686591,24.1435079 25.5176032,24.1601742 25.4665473,24.1801738 C25.4154914,24.2001733 25.3678392,24.2268394 25.3235908,24.2568387 C25.2759386,24.2868381 25.2350939,24.3201707 25.1976529,24.3601698 C25.1602119,24.3968356 25.1261747,24.440168 25.0921374,24.4835004 C25.0615039,24.5268327 25.0376778,24.5734984 25.0138517,24.6234973 C24.9934293,24.6734961 24.9764107,24.723495 24.9661995,24.7768272 C24.9559883,24.8301593 24.9491809,24.8834915 24.9491809,24.9368236 C24.9491809,24.9901558 24.9559883,25.0434879 24.9661995,25.0968201 C24.9764107,25.1501522 24.9934293,25.2001511 25.0138517,25.25015 C25.034274,25.3001489 25.0615039,25.3468145 25.0921374,25.3901469 C25.1227709,25.4368125 25.1568082,25.4768116 25.1976529,25.5134775 C25.2350939,25.5501433 25.2793423,25.5868092 25.3235908,25.6168085 C25.3678392,25.6468078 25.4154914,25.6701407 25.4665473,25.6934735 C25.5176032,25.713473 25.5686591,25.7301393 25.6231187,25.7401391 C25.6775783,25.7501389 25.7320379,25.7568054 25.7864976,25.7568054 C25.8409572,25.7568054 25.8954168,25.7501389 25.9498764,25.7401391 C26.0043361,25.7301393 26.0553919,25.713473 26.1064478,25.6934735 C26.1575037,25.6734739 26.2051559,25.6468078 26.2494043,25.6168085 C26.2936528,25.5834759 26.3344975,25.5501433 26.3753422,25.5134775 Z M30.681056,27.4934335 C30.2283604,27.4001022 29.785876,27.6834293 29.6905717,28.1234195 C29.5952673,28.566743 29.8845841,29.0000667 30.333876,29.0933979 C30.3917393,29.106731 30.4496027,29.1100642 30.507466,29.1100642 C30.8954908,29.1100642 31.2426709,28.8467367 31.3243603,28.4600787 C31.4230684,28.0234217 31.1337516,27.5867647 30.681056,27.4934335 Z M36.7124591,27.770094 C37.086869,27.5034333 37.1685584,26.9934446 36.8962603,26.6267861 C36.6239622,26.2601276 36.1031921,26.1801293 35.7287822,26.4467901 C35.3543723,26.7134508 35.2726829,27.2234395 35.544981,27.590098 C35.7083598,27.8100931 35.9636393,27.9267572 36.2223225,27.9267572 C36.3925088,27.9267572 36.5626952,27.8767583 36.7124591,27.770094 Z M28.2746215,26.4434568 C27.9002116,26.1767961 27.3760378,26.2567943 27.1071434,26.6234528 C26.8348453,26.9901113 26.9165347,27.5034333 27.2909446,27.7667607 C27.4407086,27.873425 27.6108949,27.9234239 27.7810812,27.9234239 C28.0397644,27.9234239 28.2950439,27.8067598 28.4584227,27.5867647 C28.7307209,27.2234395 28.6490314,26.7101176 28.2746215,26.4434568 L28.2746215,26.4434568 Z M34.312832,28.1267527 C34.2175277,27.6834293 33.7716396,27.4001022 33.3223477,27.4934335 C32.8696521,27.5867647 32.5803353,28.0200884 32.6756397,28.4634119 C32.7573291,28.8467367 33.1045092,29.1133975 33.492534,29.1133975 C33.5503973,29.1133975 33.6082607,29.106731 33.666124,29.0967312 C34.1188196,29.0033999 34.4081364,28.5700762 34.312832,28.1267527 Z M38.3836888,25.7368058 C38.4381484,25.7268061 38.4892043,25.7101398 38.5402602,25.6901402 C38.5913161,25.6701407 38.6389682,25.6434746 38.6832167,25.6134753 C38.7308688,25.5834759 38.7717136,25.5501433 38.8091545,25.5101442 C38.8465955,25.4734784 38.8806328,25.430146 38.9112663,25.3868136 C38.9418999,25.3434813 38.965726,25.2934824 38.989552,25.2468167 C39.0099744,25.1968178 39.026993,25.146819 39.0372042,25.0934868 C39.0474154,25.0401547 39.0542228,24.9868225 39.0542228,24.9334904 C39.0542228,24.8801582 39.0474154,24.8268261 39.0372042,24.7734939 C39.026993,24.7201618 39.0099744,24.6701629 38.989552,24.620164 C38.9691297,24.5701651 38.9418999,24.5234995 38.9112663,24.4801671 C38.8806328,24.4335015 38.8465955,24.3935024 38.8091545,24.3568365 C38.6525831,24.2035066 38.4381484,24.1168418 38.2169062,24.1168418 C37.9956639,24.1168418 37.7812292,24.2035066 37.6246578,24.3568365 C37.5872168,24.3935024 37.5497758,24.4368347 37.5191423,24.4801671 C37.4885087,24.5234995 37.4646826,24.5701651 37.4408566,24.620164 C37.4204342,24.6701629 37.4034156,24.7201618 37.3932044,24.7734939 C37.3829932,24.8268261 37.3761858,24.8801582 37.3761858,24.9334904 C37.3761858,24.9868225 37.3829932,25.0401547 37.3932044,25.0934868 C37.4034156,25.146819 37.4204342,25.1968178 37.4408566,25.2468167 C37.4612789,25.2968156 37.4885087,25.3434813 37.5191423,25.3868136 C37.5497758,25.4334793 37.5838131,25.4734784 37.6246578,25.5101442 C37.6620988,25.5468101 37.7063472,25.5834759 37.7505957,25.6134753 C37.7948441,25.6434746 37.8459,25.6668074 37.8935522,25.6901402 C37.9446081,25.7101398 37.9956639,25.7268061 38.0501236,25.7368058 C38.1045832,25.7468056 38.1590428,25.7534721 38.2135024,25.7534721 C38.2747695,25.7534721 38.3292291,25.7468056 38.3836888,25.7368058 L38.3836888,25.7368058 Z M27.5019756,24.0235106 C27.5326092,24.066843 27.5666464,24.1101753 27.6074912,24.1468412 C27.6449321,24.183507 27.6891806,24.2201729 27.733429,24.2501722 C27.7776775,24.2801716 27.8287334,24.3035044 27.8797893,24.3268372 C27.9308452,24.3468367 27.9819011,24.363503 28.0363607,24.3735028 C28.0908203,24.3835026 28.1452799,24.3901691 28.1997395,24.3901691 C28.2541992,24.3901691 28.3086588,24.3835026 28.3631184,24.3735028 C28.417578,24.363503 28.4686339,24.3468367 28.5196898,24.3268372 C28.5707457,24.3068376 28.6183979,24.2801716 28.6626463,24.2501722 C28.7102985,24.2201729 28.7511432,24.1868403 28.7885842,24.1468412 C28.8260252,24.1101753 28.8634662,24.066843 28.8940997,24.0235106 C28.9247333,23.9801782 28.9519631,23.9301793 28.9723854,23.8835137 C28.9928078,23.8335148 29.0098264,23.7835159 29.0200376,23.7301838 C29.0302488,23.6768516 29.0370562,23.6235195 29.0370562,23.5701873 C29.0370562,23.5168552 29.0302488,23.463523 29.0200376,23.4101909 C29.0098264,23.3568587 28.9928078,23.3068598 28.9723854,23.256861 C28.9519631,23.2068621 28.9247333,23.1601964 28.8940997,23.1168641 C28.8634662,23.0701984 28.8294289,23.0301993 28.7885842,22.9935335 C28.7511432,22.9568676 28.7068948,22.923535 28.6626463,22.8902024 C28.6183979,22.8602031 28.567342,22.8368703 28.5196898,22.8135375 C28.4686339,22.7935379 28.417578,22.7768716 28.3631184,22.7668718 C28.2541992,22.7468723 28.1452799,22.7468723 28.0363607,22.7668718 C27.9819011,22.7768716 27.9308452,22.7935379 27.8797893,22.8135375 C27.8287334,22.833537 27.7810812,22.8602031 27.733429,22.8902024 C27.6891806,22.9202018 27.6449321,22.9535344 27.6074912,22.9935335 C27.5700502,23.0301993 27.5326092,23.0735317 27.5019756,23.1168641 C27.4713421,23.1601964 27.447516,23.2068621 27.4236899,23.256861 C27.4032676,23.3068598 27.3862489,23.3568587 27.3760378,23.4101909 C27.3658266,23.463523 27.3590191,23.5168552 27.3590191,23.5701873 C27.3590191,23.6235195 27.3658266,23.6768516 27.3760378,23.7301838 C27.3862489,23.7835159 27.4032676,23.8335148 27.4236899,23.8835137 C27.447516,23.9301793 27.4747458,23.976845 27.5019756,24.0235106 Z M30.2113418,26.2301282 C30.3066461,26.2634608 30.4019505,26.2801271 30.4972548,26.2801271 C30.8376275,26.2801271 31.1609815,26.073465 31.2835156,25.7401391 C31.440087,25.3168152 31.2188448,24.8468256 30.7831678,24.6901624 C30.3474909,24.5368325 29.8675654,24.7534944 29.710994,25.1801516 C29.5544226,25.6034755 29.7790686,26.073465 30.2113418,26.2301282 Z M33.5027452,26.2801271 C33.5980495,26.2801271 33.6933539,26.2634608 33.7886582,26.2301282 C34.2243352,26.0767983 34.4455774,25.6034755 34.289006,25.1801516 C34.1324346,24.7568276 33.6525091,24.5368325 33.2168322,24.6901624 C32.7811552,24.8434924 32.559913,25.3168152 32.7164844,25.7401391 C32.8390185,26.073465 33.1623725,26.2801271 33.5027452,26.2801271 Z M35.109304,24.0235106 C35.1399375,24.066843 35.1739748,24.1101753 35.2114158,24.1468412 C35.2488568,24.183507 35.2931052,24.2201729 35.3373537,24.2501722 C35.3816021,24.2801716 35.432658,24.3035044 35.4803102,24.3268372 C35.5313661,24.3468367 35.582422,24.363503 35.6368816,24.3735028 C35.6913412,24.3835026 35.7458008,24.3901691 35.8002605,24.3901691 C35.8547201,24.3901691 35.9091797,24.3835026 35.9636393,24.3735028 C36.0180989,24.363503 36.0691548,24.3468367 36.1202107,24.3268372 C36.1712666,24.3068376 36.2189188,24.2801716 36.2631672,24.2501722 C36.3108194,24.2201729 36.3516641,24.1868403 36.3891051,24.1468412 C36.5456765,23.9935113 36.6341734,23.7835159 36.6341734,23.5668541 C36.6341734,23.5135219 36.627366,23.4601898 36.6171548,23.4068576 C36.6069436,23.3535255 36.589925,23.3035266 36.5695026,23.2535277 C36.5490803,23.2035288 36.5218504,23.1568632 36.4912169,23.1135308 C36.4605834,23.0668652 36.4265461,23.0268661 36.3857014,22.9902002 C36.3482604,22.9535344 36.304012,22.9202018 36.2597635,22.8868692 C36.2155151,22.8568698 36.1678629,22.833537 36.116807,22.8102042 C36.0657511,22.7902047 36.0146952,22.7735384 35.9602356,22.7635386 C35.8513164,22.743539 35.7389934,22.743539 35.6334779,22.7635386 C35.5790182,22.7735384 35.5279624,22.7902047 35.4769065,22.8102042 C35.4258506,22.8302038 35.3781984,22.8568698 35.33395,22.8868692 C35.2862978,22.9168685 35.2454531,22.9502011 35.2080121,22.9902002 C35.1705711,23.0268661 35.1331301,23.0701984 35.1059003,23.1135308 C35.0752667,23.1568632 35.0480369,23.2035288 35.0276146,23.2535277 C35.0071922,23.3035266 34.9901736,23.3535255 34.9799624,23.4068576 C34.9697512,23.4601898 34.9629438,23.5135219 34.9629438,23.5668541 C34.9629438,23.6201862 34.9697512,23.6735184 34.9799624,23.7268505 C34.9901736,23.7801827 35.0071922,23.8301816 35.0276146,23.8801804 C35.0514407,23.9301793 35.0786705,23.976845 35.109304,24.0235106 L35.109304,24.0235106 Z M41.0909091,17 C41.5929861,17 42,17.4070139 42,17.9090909 C42,18.3753053 41.6490544,18.759552 41.1969283,18.8120657 L41.0909091,18.8181818 L36.09,18.818 L36.0909091,19.9545455 C36.0909091,20.7829726 35.4193362,21.4545455 34.5909091,21.4545455 L29.4090909,21.4545455 C28.5806638,21.4545455 27.9090909,20.7829726 27.9090909,19.9545455 L27.909,18.818 L22.9090909,18.8181818 C22.4070139,18.8181818 22,18.411168 22,17.9090909 C22,17.4428765 22.3509456,17.0586299 22.8030717,17.0061161 L22.9090909,17 L41.0909091,17 Z" id="Icon"></path>
            </g>
        </g>
    </g>
</svg>