<?xml version="1.0" encoding="UTF-8"?>
<svg width="13px" height="14px" viewBox="0 0 13 14" version="1.1" xmlns="http://www.w3.org/2000/svg" xmlns:xlink="http://www.w3.org/1999/xlink">
    <title>Icon</title>
    <g id="电脑端备份" stroke="none" stroke-width="1" fill="none" fill-rule="evenodd">
        <g id="实时监测-设备详情-V1" transform="translate(-653.000000, -169.000000)" fill="#000000" fill-rule="nonzero">
            <g id="Group" transform="translate(206.000000, 150.000000)">
                <g id="Icons" transform="translate(75.000000, 12.000000)">
                    <g id="Item" transform="translate(360.000000, 0.000000)">
                        <polygon id="Icon" points="24.981068 15.328125 24.7191748 14.3625 21.9424757 15.1 20.0366505 14.009375 21.9424757 12.91875 24.7191748 13.65625 24.981068 12.690625 23.1793689 12.2125 25 11.171875 24.2427184 9.875 22.4567961 10.896875 22.9395631 9.1125 21.9645631 8.853125 21.2199029 11.603125 19.2572816 12.725 19.2572816 10.503125 21.2924757 8.490625 20.5762136 7.784375 19.2572816 9.090625 19.2572816 7 17.7427184 7 17.7427184 9.05 16.4269417 7.746875 15.713835 8.453125 17.7427184 10.465625 17.7427184 12.696875 15.8274272 11.603125 15.082767 8.853125 14.107767 9.1125 14.590534 10.896875 12.7699029 9.853125 12.0126214 11.153125 13.801699 12.175 12 12.653125 12.2618932 13.61875 15.0354369 12.88125 17.0106796 14.009375 15.0354369 15.140625 12.2618932 14.403125 12 15.36875 13.801699 15.846875 12.0126214 16.86875 12.7699029 18.165625 14.590534 17.125 14.107767 18.90625 15.082767 19.165625 15.8274272 16.41875 17.7427184 15.321875 17.7427184 17.5375 15.713835 19.55 16.4269417 20.25625 17.7427184 18.95 17.7427184 21 19.2572816 21 19.2572816 18.9125 20.5793689 20.215625 21.2893204 19.509375 19.2572816 17.5 19.2572816 15.29375 21.2199029 16.41875 21.9645631 19.165625 22.9395631 18.90625 22.4567961 17.125 24.2427184 18.146875 25 16.846875 23.1793689 15.80625"></polygon>
                    </g>
                </g>
            </g>
        </g>
    </g>
</svg>