<?xml version="1.0" encoding="UTF-8"?>
<svg width="16px" height="16px" viewBox="0 0 16 16" version="1.1" xmlns="http://www.w3.org/2000/svg" xmlns:xlink="http://www.w3.org/1999/xlink">
    <title>Icon</title>
    <g id="小程序" stroke="none" stroke-width="1" fill="none" fill-rule="evenodd" fill-opacity="0.5">
        <g id="状态图标" transform="translate(-88.000000, -78.000000)" fill="#000000" fill-rule="nonzero">
            <g id="Item" transform="translate(64.000000, 64.000000)">
                <path d="M28.2187062,17.0823834 L26.9093855,15.7610016 L25.8185048,16.8619546 L27.1278255,18.1833364 L28.2187062,17.0823834 Z M26.1817614,21.2656965 L24,21.2656965 L24,22.7332056 L26.1817614,22.7332056 L26.1817614,21.2656965 Z M32.7270455,14 L31.2729314,14 L31.2729314,16.1277212 L32.7270455,16.1277212 L32.7270455,14 Z M38.1814952,16.8619546 L37.0906145,15.7610016 L35.7812707,17.0823834 L36.7997778,18.1101794 L38.1814952,16.8619546 Z M35.7812707,26.9176166 L37.0906145,28.2379006 L38.1101169,27.2111324 L36.7997778,25.889844 L35.7812707,26.9176166 Z M37.8181923,22.7332056 L40,22.7332056 L40,21.2656965 L37.8181923,21.2656965 L37.8181923,22.7332056 Z M32.0005555,17.595207 C29.6004467,17.595207 27.6370096,19.5777586 27.6370096,21.9989722 C27.6370096,24.4211202 29.6004467,26.4026441 32.0005555,26.4026441 C34.4006874,26.4026441 36.3640319,24.4211202 36.3640319,21.9989722 C36.3640319,19.5777586 34.4006874,17.595207 32.0005555,17.595207 M31.2729314,30 L32.7270455,30 L32.7270455,27.871251 L31.2729314,27.871251 L31.2729314,30 Z M25.8185048,27.1369476 L26.9093855,28.2378772 L28.2187062,26.9175932 L27.20131,25.8897972 L25.8185048,27.1369476 Z" id="Icon"></path>
            </g>
        </g>
    </g>
</svg>